<svg height="121.474" viewBox="0 0 130.002 121.474" width="130.002" xmlns="http://www.w3.org/2000/svg"><g fill="#0098d8"><path d="m155.639 186.487-14.139-21.841a5.9 5.9 0 0 0 -4.972-2.7h-62.4a5.9 5.9 0 0 0 -4.967 2.7l-14.195 21.837a5.936 5.936 0 0 0 .545 7.166l45.364 50.929a5.928 5.928 0 0 0 4.423 1.984 5.929 5.929 0 0 0 4.423-1.983l45.369-50.932a5.937 5.937 0 0 0 .549-7.16zm-21.98-19.467-11.895 18.393-11.9-18.393zm-16.559 20.529h-23.6l11.8-18.236zm-16.367-20.529-11.869 18.343-11.864-18.343zm-28.433 2.091 11.93 18.438h-23.9zm-10.9 23.516h25.556l13.512 43.859zm43.9 42.287-13.03-42.287h26.056zm4.829 1.574 13.513-43.86h25.558zm16.3-48.939 11.915-18.425 11.931 18.425z" transform="translate(-40.299 -125.087)"/><path d="m7.7 262.793h-5.161a2.539 2.539 0 0 0 0 5.078h5.161a2.539 2.539 0 0 0 0-5.078z" transform="translate(0 -200.331)"/><path d="m479.369 262.793h-5.163a2.539 2.539 0 0 0 0 5.078h5.163a2.539 2.539 0 0 0 0-5.078z" transform="translate(-351.906 -200.331)"/><path d="m399.626 89.641a2.54 2.54 0 0 0 -3.591 0l-8.435 8.434a2.539 2.539 0 0 0 3.591 3.591l8.434-8.434a2.539 2.539 0 0 0 .001-3.591z" transform="translate(-288.63 -70.589)"/><path d="m85.127 97.9-8.434-8.434a2.539 2.539 0 0 0 -3.593 3.587l8.434 8.434a2.539 2.539 0 0 0 3.593-3.587z" transform="translate(-53.985 -70.455)"/><path d="m248.793 16.793a2.539 2.539 0 0 0 -2.539 2.539v16.547a2.539 2.539 0 1 0 5.078 0v-16.547a2.539 2.539 0 0 0 -2.539-2.539z" transform="translate(-183.728 -16.793)"/><path d="m250.584 116.534a2.537 2.537 0 1 0 .744 1.8 2.557 2.557 0 0 0 -.744-1.8z" transform="translate(-183.725 -90.654)"/></g></svg>