<svg height="121.474" viewBox="0 0 143.966 121.474" width="143.966" xmlns="http://www.w3.org/2000/svg"><g fill="#f2df00"><path d="m95.7 289.15a2.815 2.815 0 1 0 .824 1.988 2.829 2.829 0 0 0 -.824-1.988z" transform="translate(-65.337 -218.499)"/><path d="m190.042 289.15a2.815 2.815 0 1 0 .824 1.988 2.833 2.833 0 0 0 -.824-1.988z" transform="translate(-133.153 -218.499)"/><path d="m127.027 345.948a2.813 2.813 0 0 0 -3.444 1.991 6.88 6.88 0 0 1 -13.3 0 2.813 2.813 0 0 0 -5.436 1.452 12.506 12.506 0 0 0 24.169 0 2.814 2.814 0 0 0 -1.989-3.443z" transform="translate(-75.299 -259.85)"/><path d="m248.929 39.995a2.813 2.813 0 0 0 -2.813 2.813v17.859a2.813 2.813 0 1 0 5.626 0v-17.859a2.813 2.813 0 0 0 -2.813-2.813z" transform="translate(-176.912 -39.995)"/><path d="m250.923 139.688a2.812 2.812 0 1 0 .824 1.989 2.823 2.823 0 0 0 -.824-1.989z" transform="translate(-176.916 -111.064)"/><path d="m164.517 110.5-7.182-7.176a2.813 2.813 0 1 0 -3.977 3.98l7.182 7.176a2.813 2.813 0 1 0 3.977-3.98z" transform="translate(-109.644 -84.927)"/><path d="m325.007 103.352a2.813 2.813 0 0 0 -3.979 0l-7.636 7.642a2.813 2.813 0 1 0 3.98 3.977l7.635-7.642a2.813 2.813 0 0 0 0-3.977z" transform="translate(-224.68 -84.945)"/><path d="m142.543 206.639a41.655 41.655 0 0 0 -70.58-17.731 41.636 41.636 0 1 0 .031 57.018 41.63 41.63 0 0 0 70.549-39.287zm-100.907 46.8a36.009 36.009 0 1 1 26.737-60.129q-1.119 1.583-2.1 3.283a41.646 41.646 0 0 0 2.12 44.941 35.842 35.842 0 0 1 -26.758 11.909zm70.01-1.246a36.009 36.009 0 0 1 -40.5-52.787 36.544 36.544 0 0 1 2.954-4.356c.047-.054.09-.109.132-.166a36.012 36.012 0 1 1 37.414 57.316z" transform="translate(0 -137.596)"/><path d="m303.938 292.685a6.1 6.1 0 1 0 -11.788 3.158 2.813 2.813 0 1 0 5.434-1.456.476.476 0 0 1 .336-.582.475.475 0 0 1 .582.336 2.813 2.813 0 0 0 5.435-1.456z" transform="translate(-209.853 -218.381)"/><path d="m394.5 268.414a6.1 6.1 0 1 0 -11.787 3.159 2.813 2.813 0 1 0 5.435-1.456.475.475 0 0 1 .918-.246 2.813 2.813 0 0 0 5.435-1.456z" transform="translate(-274.946 -200.934)"/><path d="m355.245 337.427a2.813 2.813 0 1 0 -5.435 1.456 6.707 6.707 0 1 1 -12.958 3.472 2.813 2.813 0 0 0 -5.435 1.456 12.35 12.35 0 0 0 11.894 9.147 12.352 12.352 0 0 0 11.934-15.531z" transform="translate(-238.16 -252.295)"/></g></svg>