<svg id="value_1_" data-name="value (1)" xmlns="http://www.w3.org/2000/svg" width="130.002" height="121.474" viewBox="0 0 130.002 121.474">
  <g id="Group_43" data-name="Group 43" transform="translate(13.715 36.855)">
    <g id="Group_42" data-name="Group 42">
      <path id="Path_26" data-name="Path 26" d="M155.639,186.487,141.5,164.646a5.9,5.9,0,0,0-4.972-2.7h-62.4a5.9,5.9,0,0,0-4.967,2.7L54.966,186.483a5.936,5.936,0,0,0,.545,7.166l45.364,50.929a5.928,5.928,0,0,0,4.423,1.984h0a5.929,5.929,0,0,0,4.423-1.983l45.369-50.932A5.937,5.937,0,0,0,155.639,186.487Zm-21.98-19.467-11.895,18.393-11.9-18.393ZM117.1,187.549H93.5l11.8-18.236ZM100.733,167.02,88.864,185.363,77,167.02ZM72.3,169.111,84.23,187.549h-23.9ZM61.4,192.627H86.956l13.512,43.859Zm43.9,42.287L92.27,192.627h26.056Zm4.829,1.574,13.513-43.86H149.2Zm16.3-48.939,11.915-18.425,11.931,18.425Z" transform="translate(-54.014 -161.942)" fill="#0098d8"/>
    </g>
  </g>
  <g id="Group_45" data-name="Group 45" transform="translate(0 62.462)">
    <g id="Group_44" data-name="Group 44">
      <path id="Path_27" data-name="Path 27" d="M7.7,262.793H2.539a2.539,2.539,0,0,0,0,5.078H7.7a2.539,2.539,0,0,0,0-5.078Z" transform="translate(0 -262.793)" fill="#0098d8"/>
    </g>
  </g>
  <g id="Group_47" data-name="Group 47" transform="translate(119.761 62.462)">
    <g id="Group_46" data-name="Group 46">
      <path id="Path_28" data-name="Path 28" d="M479.369,262.793h-5.163a2.539,2.539,0,0,0,0,5.078h5.163a2.539,2.539,0,0,0,0-5.078Z" transform="translate(-471.667 -262.793)" fill="#0098d8"/>
    </g>
  </g>
  <g id="Group_49" data-name="Group 49" transform="translate(98.227 18.308)">
    <g id="Group_48" data-name="Group 48">
      <path id="Path_29" data-name="Path 29" d="M399.626,89.641a2.54,2.54,0,0,0-3.591,0L387.6,98.075a2.539,2.539,0,0,0,3.591,3.591l8.434-8.434A2.539,2.539,0,0,0,399.626,89.641Z" transform="translate(-386.857 -88.897)" fill="#0098d8"/>
    </g>
  </g>
  <g id="Group_51" data-name="Group 51" transform="translate(18.373 18.263)">
    <g id="Group_50" data-name="Group 50">
      <path id="Path_30" data-name="Path 30" d="M85.127,97.9l-8.434-8.434A2.539,2.539,0,0,0,73.1,93.053l8.434,8.434A2.539,2.539,0,0,0,85.127,97.9Z" transform="translate(-72.358 -88.718)" fill="#0098d8"/>
    </g>
  </g>
  <g id="Group_53" data-name="Group 53" transform="translate(62.526 0)">
    <g id="Group_52" data-name="Group 52">
      <path id="Path_31" data-name="Path 31" d="M248.793,16.793a2.539,2.539,0,0,0-2.539,2.539V35.879a2.539,2.539,0,1,0,5.078,0V19.332A2.539,2.539,0,0,0,248.793,16.793Z" transform="translate(-246.254 -16.793)" fill="#0098d8"/>
    </g>
  </g>
  <g id="Group_55" data-name="Group 55" transform="translate(62.525 25.136)">
    <g id="Group_54" data-name="Group 54">
      <path id="Path_32" data-name="Path 32" d="M250.584,116.534a2.537,2.537,0,1,0,.744,1.8A2.557,2.557,0,0,0,250.584,116.534Z" transform="translate(-246.25 -115.79)" fill="#0098d8"/>
    </g>
  </g>
</svg>
