<svg id="smile" xmlns="http://www.w3.org/2000/svg" width="143.966" height="121.474" viewBox="0 0 143.966 121.474">
  <g id="Group_57" data-name="Group 57" transform="translate(25.558 69.827)">
    <g id="Group_56" data-name="Group 56" transform="translate(0 0)">
      <path id="Path_33" data-name="Path 33" d="M95.7,289.15a2.815,2.815,0,1,0,.824,1.988A2.829,2.829,0,0,0,95.7,289.15Z" transform="translate(-90.895 -288.326)" fill="#f2df00"/>
    </g>
  </g>
  <g id="Group_59" data-name="Group 59" transform="translate(52.087 69.827)">
    <g id="Group_58" data-name="Group 58" transform="translate(0 0)">
      <path id="Path_34" data-name="Path 34" d="M190.042,289.15a2.815,2.815,0,1,0,.824,1.988A2.833,2.833,0,0,0,190.042,289.15Z" transform="translate(-185.24 -288.326)" fill="#f2df00"/>
    </g>
  </g>
  <g id="Group_61" data-name="Group 61" transform="translate(29.455 86.002)">
    <g id="Group_60" data-name="Group 60">
      <path id="Path_35" data-name="Path 35" d="M127.027,345.948a2.813,2.813,0,0,0-3.444,1.991,6.88,6.88,0,0,1-13.3,0,2.813,2.813,0,0,0-5.436,1.452,12.506,12.506,0,0,0,24.169,0A2.814,2.814,0,0,0,127.027,345.948Z" transform="translate(-104.754 -345.852)" fill="#f2df00"/>
    </g>
  </g>
  <g id="Group_63" data-name="Group 63" transform="translate(69.204 0)">
    <g id="Group_62" data-name="Group 62">
      <path id="Path_36" data-name="Path 36" d="M248.929,39.995a2.813,2.813,0,0,0-2.813,2.813V60.667a2.813,2.813,0,1,0,5.626,0V42.808A2.813,2.813,0,0,0,248.929,39.995Z" transform="translate(-246.116 -39.995)" fill="#f2df00"/>
    </g>
  </g>
  <g id="Group_65" data-name="Group 65" transform="translate(69.205 27.8)">
    <g id="Group_64" data-name="Group 64">
      <path id="Path_37" data-name="Path 37" d="M250.923,139.688a2.812,2.812,0,1,0,.824,1.989A2.823,2.823,0,0,0,250.923,139.688Z" transform="translate(-246.121 -138.864)" fill="#f2df00"/>
    </g>
  </g>
  <g id="Group_67" data-name="Group 67" transform="translate(42.89 17.576)">
    <g id="Group_66" data-name="Group 66" transform="translate(0 0)">
      <path id="Path_38" data-name="Path 38" d="M164.517,110.5l-7.182-7.176a2.813,2.813,0,1,0-3.977,3.98l7.182,7.176a2.813,2.813,0,1,0,3.977-3.98Z" transform="translate(-152.534 -102.503)" fill="#f2df00"/>
    </g>
  </g>
  <g id="Group_69" data-name="Group 69" transform="translate(87.889 17.583)">
    <g id="Group_68" data-name="Group 68" transform="translate(0 0)">
      <path id="Path_39" data-name="Path 39" d="M325.007,103.352a2.813,2.813,0,0,0-3.979,0l-7.636,7.642a2.813,2.813,0,1,0,3.98,3.977l7.635-7.642A2.813,2.813,0,0,0,325.007,103.352Z" transform="translate(-312.569 -102.528)" fill="#f2df00"/>
    </g>
  </g>
  <g id="Group_71" data-name="Group 71" transform="translate(0 38.179)">
    <g id="Group_70" data-name="Group 70">
      <path id="Path_40" data-name="Path 40" d="M142.543,206.639a41.655,41.655,0,0,0-70.58-17.731,41.636,41.636,0,1,0,.031,57.018,41.63,41.63,0,0,0,70.549-39.287Zm-100.907,46.8a36.009,36.009,0,1,1,26.737-60.129q-1.119,1.583-2.1,3.283a41.646,41.646,0,0,0,2.12,44.941A35.842,35.842,0,0,1,41.635,253.443Zm70.01-1.246a36.009,36.009,0,0,1-40.5-52.787A36.544,36.544,0,0,1,74.1,195.05c.047-.054.09-.109.132-.166A36.012,36.012,0,1,1,111.646,252.2Z" transform="translate(0 -175.775)" fill="#f2df00"/>
    </g>
  </g>
  <g id="Group_73" data-name="Group 73" transform="translate(82.089 69.78)">
    <g id="Group_72" data-name="Group 72">
      <path id="Path_41" data-name="Path 41" d="M303.938,292.685a6.1,6.1,0,1,0-11.788,3.158,2.813,2.813,0,1,0,5.434-1.456.476.476,0,0,1,.336-.582.475.475,0,0,1,.582.336,2.813,2.813,0,0,0,5.435-1.456Z" transform="translate(-291.942 -288.161)" fill="#f2df00"/>
    </g>
  </g>
  <g id="Group_75" data-name="Group 75" transform="translate(107.553 62.955)">
    <g id="Group_74" data-name="Group 74">
      <path id="Path_42" data-name="Path 42" d="M394.5,268.414a6.1,6.1,0,1,0-11.787,3.159,2.813,2.813,0,1,0,5.435-1.456.475.475,0,0,1,.918-.246,2.813,2.813,0,0,0,5.435-1.456Z" transform="translate(-382.499 -263.889)" fill="#f2df00"/>
    </g>
  </g>
  <g id="Group_77" data-name="Group 77" transform="translate(93.162 83.046)">
    <g id="Group_76" data-name="Group 76">
      <path id="Path_43" data-name="Path 43" d="M355.245,337.427a2.813,2.813,0,1,0-5.435,1.456,6.707,6.707,0,1,1-12.958,3.472,2.813,2.813,0,0,0-5.435,1.456,12.35,12.35,0,0,0,11.894,9.147,12.352,12.352,0,0,0,11.934-15.531Z" transform="translate(-331.322 -335.341)" fill="#f2df00"/>
    </g>
  </g>
</svg>
