<svg xmlns="http://www.w3.org/2000/svg" width="13.987" height="13.987" viewBox="0 0 13.987 13.987">
  <path id="_2301129" data-name="2301129" d="M11.937,2.049a6.992,6.992,0,1,0,0,9.888A6.988,6.988,0,0,0,11.937,2.049Zm-.292,8.891a7.008,7.008,0,0,0-1.044-.773,11.308,11.308,0,0,0,.422-2.728h2.056a6.045,6.045,0,0,1-1.433,3.5ZM.909,7.438H2.964a11.308,11.308,0,0,0,.422,2.728,7.008,7.008,0,0,0-1.044.773A6.046,6.046,0,0,1,.909,7.438ZM2.342,3.046a7.008,7.008,0,0,0,1.044.773,11.308,11.308,0,0,0-.422,2.728H.909A6.046,6.046,0,0,1,2.342,3.046Zm4.206.866a6.053,6.053,0,0,1-2.077-.526A3.873,3.873,0,0,1,6.548.956Zm0,.893V6.547H3.856a10.5,10.5,0,0,1,.338-2.31A6.945,6.945,0,0,0,6.548,4.8Zm0,2.635V9.182a6.945,6.945,0,0,0-2.354.567,10.5,10.5,0,0,1-.338-2.31Zm0,2.636V13.03A3.873,3.873,0,0,1,4.471,10.6,6.053,6.053,0,0,1,6.548,10.075Zm.891,0a6.053,6.053,0,0,1,2.077.526A3.873,3.873,0,0,1,7.439,13.03Zm0-.893V7.438h2.692a10.5,10.5,0,0,1-.338,2.31,6.945,6.945,0,0,0-2.354-.567Zm0-2.635V4.8a6.945,6.945,0,0,0,2.354-.567,10.5,10.5,0,0,1,.338,2.31Zm0-2.636V.956A3.873,3.873,0,0,1,9.516,3.385,6.054,6.054,0,0,1,7.439,3.911Zm2-2.51A6.074,6.074,0,0,1,11.02,2.41a6.124,6.124,0,0,1-.717.544A6.708,6.708,0,0,0,9.44,1.4ZM3.684,2.954a6.126,6.126,0,0,1-.717-.544A6.074,6.074,0,0,1,4.547,1.4,6.71,6.71,0,0,0,3.684,2.954Zm0,8.078a6.709,6.709,0,0,0,.863,1.553,6.074,6.074,0,0,1-1.579-1.009A6.124,6.124,0,0,1,3.684,11.032Zm6.619,0a6.127,6.127,0,0,1,.717.544A6.074,6.074,0,0,1,9.44,12.585,6.708,6.708,0,0,0,10.3,11.032Zm.72-4.485A11.308,11.308,0,0,0,10.6,3.819a7.01,7.01,0,0,0,1.044-.773,6.046,6.046,0,0,1,1.433,3.5Z" transform="translate(0 0)" fill="#262626"/>
</svg>
