<svg xmlns="http://www.w3.org/2000/svg" width="111.467" height="111.464" viewBox="0 0 111.467 111.464">
  <path id="rocket" d="M110.424,7.026l-.474-2.605a3.6,3.6,0,0,0-2.895-2.895l-2.605-.474A65,65,0,0,0,71.3,3.686C57.487,8.547,48.431,16.547,40.452,26.46l-4.214-1.446a19.8,19.8,0,0,0-19.752,4.078L3.177,41.19A9.68,9.68,0,0,0,9.384,58.018l11.772.367a11.7,11.7,0,0,0,3.271,10.186L42.905,87.05a11.692,11.692,0,0,0,10.187,3.272l.367,11.771A9.68,9.68,0,0,0,70.287,108.3l12.1-13.308a19.8,19.8,0,0,0,4.078-19.752l-1.446-4.214c9.654-7.77,17.791-16.688,22.775-30.843a65,65,0,0,0,2.633-33.155ZM8.015,46.511l13.308-12.1a12.613,12.613,0,0,1,12.58-2.6l1.943.667a154.12,154.12,0,0,0-11.686,18.8L9.608,50.83a2.48,2.48,0,0,1-1.593-4.318ZM79.661,77.573a12.612,12.612,0,0,1-2.6,12.58l-12.1,13.308a2.479,2.479,0,0,1-4.318-1.593l-.454-14.553a153.824,153.824,0,0,0,18.8-11.686Zm4.352-15.064A146.519,146.519,0,0,1,53.154,82.83a4.5,4.5,0,0,1-5.163-.866c.023,0,.168.168-18.479-18.479a4.5,4.5,0,0,1-.866-5.163q1.382-2.818,2.885-5.57L51.038,72.258a3.6,3.6,0,0,0,5.085-5.085L35.255,46.306A146.252,146.252,0,0,1,49.262,27.12,57.8,57.8,0,0,1,103.32,8.156,57.791,57.791,0,0,1,84.013,62.509ZM63.574,25.983c-9.746,9.745-2.783,26.452,10.96,26.452s20.717-16.7,10.96-26.452a15.517,15.517,0,0,0-21.92,0ZM80.409,42.817a8.308,8.308,0,1,1,0-11.749A8.318,8.318,0,0,1,80.409,42.817ZM5.523,84.1a3.6,3.6,0,0,1,0-5.085l4.656-4.656a3.6,3.6,0,1,1,5.085,5.085L10.608,84.1A3.6,3.6,0,0,1,5.523,84.1Zm31.77,12.287a3.6,3.6,0,0,1,0,5.085l-4.656,4.656a3.6,3.6,0,1,1-5.085-5.085l4.656-4.656A3.6,3.6,0,0,1,37.293,96.391Zm-7.855-9.267L13.627,102.934a3.6,3.6,0,0,1-5.085-5.085L24.353,82.038a3.6,3.6,0,1,1,5.085,5.085Z" transform="translate(-0.001 -0.008)" fill="#d9006c"/>
</svg>
