<svg height="39.297" viewBox="0 0 223.629 39.297" width="223.629" xmlns="http://www.w3.org/2000/svg"><g fill="#1a1311"><path d="m-125.471 85.707h-7.3v3.946h6.888v5.2h-6.888v4.071h7.3v5.2h-13.429v-23.615h13.433z" transform="translate(223.664 -72.666)"/><path d="m-116.885 104.119 4.008-23.61h6.074l4.728 12.588 4.7-12.588h6.075l4.008 23.61h-6.108l-2.035-13.59-5.573 13.59h-2.442l-5.292-13.59-2.035 13.59z" transform="translate(218.429 -72.666)"/><path d="m-74.369 92.109a12.332 12.332 0 0 1 .971-4.9 12.214 12.214 0 0 1 2.692-3.961 12.305 12.305 0 0 1 4.118-2.648 14.116 14.116 0 0 1 5.276-.955 14.145 14.145 0 0 1 5.26.955 12.447 12.447 0 0 1 4.15 2.646 12.129 12.129 0 0 1 2.709 3.961 12.358 12.358 0 0 1 .97 4.9 12.356 12.356 0 0 1 -.97 4.9 12.132 12.132 0 0 1 -2.709 3.961 12.459 12.459 0 0 1 -4.15 2.646 14.161 14.161 0 0 1 -5.26.955 14.131 14.131 0 0 1 -5.276-.955 12.317 12.317 0 0 1 -4.118-2.646 12.217 12.217 0 0 1 -2.694-3.959 12.329 12.329 0 0 1 -.969-4.9zm6.42 0a6.286 6.286 0 0 0 .532 2.6 6.544 6.544 0 0 0 1.441 2.066 6.492 6.492 0 0 0 2.113 1.362 6.759 6.759 0 0 0 2.552.486 6.762 6.762 0 0 0 2.552-.486 6.691 6.691 0 0 0 2.13-1.362 6.454 6.454 0 0 0 1.456-2.066 6.286 6.286 0 0 0 .532-2.6 6.285 6.285 0 0 0 -.532-2.6 6.466 6.466 0 0 0 -1.456-2.067 6.717 6.717 0 0 0 -2.13-1.362 6.777 6.777 0 0 0 -2.552-.486 6.774 6.774 0 0 0 -2.552.486 6.518 6.518 0 0 0 -2.113 1.362 6.557 6.557 0 0 0 -1.441 2.067 6.285 6.285 0 0 0 -.532 2.6z" transform="translate(208.32 -72.461)"/><path d="m-34.974 104.119v-23.61h6.138l11.336 14.435v-14.435h6.1v23.61h-6.1l-11.336-14.435v14.435z" transform="translate(198.954 -72.666)"/><path d="m2.449 80.509h9.081a10.723 10.723 0 0 1 4.525.97 12.334 12.334 0 0 1 3.695 2.584 12.009 12.009 0 0 1 2.49 3.757 11.6 11.6 0 0 1 .015 8.956 11.957 11.957 0 0 1 -2.474 3.773 12.19 12.19 0 0 1 -3.695 2.6 10.782 10.782 0 0 1 -4.556.97h-9.081zm6.137 18.412h1.414a7.625 7.625 0 0 0 2.849-.5 6.084 6.084 0 0 0 2.114-1.378 5.89 5.89 0 0 0 1.315-2.082 7.45 7.45 0 0 0 .454-2.646 7.256 7.256 0 0 0 -.47-2.63 5.894 5.894 0 0 0 -3.445-3.476 7.533 7.533 0 0 0 -2.818-.5h-1.413z" transform="translate(190.056 -72.666)"/><path d="m33.668 106.4a3.66 3.66 0 0 1 .282-1.425 3.6 3.6 0 0 1 1.957-1.957 3.739 3.739 0 0 1 2.849 0 3.662 3.662 0 0 1 0 6.763 3.739 3.739 0 0 1 -2.849 0 3.6 3.6 0 0 1 -1.957-1.957 3.654 3.654 0 0 1 -.282-1.424z" transform="translate(182.633 -77.95)"/></g><path d="m0 0h27.787v27.787h-27.787z" fill="#0089d0" transform="matrix(.70710678 .70710678 -.70710678 .70710678 19.648 0)"/><path d="m0 0h27.787v27.787h-27.787z" fill="#c70066" transform="matrix(.70710678 .70710678 -.70710678 .70710678 34.81 0)"/><path d="m0 0h27.787v27.787h-27.787z" fill="#fad700" transform="matrix(.70710678 .70710678 -.70710678 .70710678 49.971 0)"/><path d="m0 0h27.787v27.787h-27.787z" fill="#fad700" transform="matrix(.70710678 .70710678 -.70710678 .70710678 49.971 0)"/></svg>